<svg xmlns="http://www.w3.org/2000/svg" viewBox="0 0 160 160"><defs><linearGradient id="g" x1="0" y1="0" x2="1" y2="1"><stop offset="0%" stop-color="#06b6d4"/><stop offset="100%" stop-color="#3b82f6"/></linearGradient></defs><rect width="160" height="160" rx="28" fill="url(#g)"/><circle cx="80" cy="80" r="50" fill="rgba(255,255,255,.14)"/><path d="M48 72c8 0 8 8 16 8s8-8 16-8 8 8 16 8 8-8 16-8M48 96c8 0 8 8 16 8s8-8 16-8 8 8 16 8 8-8 16-8" fill="none" stroke="#fff" stroke-width="7" stroke-linecap="round"/><circle cx="50" cy="50" r="3" fill="#fff"/><circle cx="73" cy="40" r="2.5" fill="#fff"/><circle cx="94" cy="46" r="2.5" fill="#fff"/><circle cx="112" cy="56" r="3" fill="#fff"/></svg>